<svg xmlns="http://www.w3.org/2000/svg" enable-background="new 0 0 32 32" viewBox="0 0 32 32" fill="#EB5757"><path d="M7.39001,20.20001L5.87,29.06C5.77002,29.62,6,30.19,6.46997,30.53003c0.46002,0.32996,1.07001,0.37994,1.58002,0.10999L16,26.46002l7.95001,4.17999c0.21997,0.12,0.45996,0.16998,0.70001,0.16998c0.31,0,0.62-0.09003,0.88-0.27997C26,30.19,26.22998,29.62,26.13,29.06l-1.52002-8.85999l6.44-6.27002c0.41003-0.39996,0.54999-0.98999,0.38-1.53998c-0.17999-0.54004-0.64996-0.94-1.21002-1.02002l-8.89996-1.28998l-3.97998-8.06C17.09003,1.51001,16.57001,1.19,16,1.19s-1.09003,0.32001-1.34003,0.83002l-3.97998,8.06L1.78003,11.37C1.21997,11.45001,0.75,11.84998,0.57001,12.39001c-0.16998,0.54999-0.03003,1.14001,0.38,1.53998L7.39001,20.20001z"/></svg>